<svg xmlns="http://www.w3.org/2000/svg" version="1.1" xmlns:xlink="http://www.w3.org/1999/xlink" xmlns:svgjs="http://svgjs.dev/svgjs" width="1500" height="1500" viewBox="0 0 1500 1500"><rect width="1500" height="1500" fill="#000000"></rect><g transform="matrix(0.6666666666666666,0,0,0.6666666666666666,249.60982744206166,332.0054032776913)"><svg viewBox="0 0 295 247" data-background-color="#6a2055" preserveAspectRatio="xMidYMid meet" height="1255" width="1500" xmlns="http://www.w3.org/2000/svg" xmlns:xlink="http://www.w3.org/1999/xlink"><g id="tight-bounds" transform="matrix(1,0,0,1,0.11510090459179878,-0.1000015254060429)"><svg viewBox="0 0 294.7697981908164 247.2" height="247.2" width="294.7697981908164"><g><svg viewBox="0 0 395.52 331.69118613945614" height="247.2" width="294.7697981908164"><g transform="matrix(1,0,0,1,0,200.50549987499252)"><svg viewBox="0 0 395.52 131.18568626446358" height="131.18568626446358" width="395.52"><g id="textblocktransform"><svg viewBox="0 0 395.52 131.18568626446358" height="131.18568626446358" width="395.52" id="textblock"><g><svg viewBox="0 0 395.52 81.3588906009245" height="81.3588906009245" width="395.52"><g transform="matrix(1,0,0,1,0,0)"><svg width="395.52" viewBox="2.5 -40.95 259.58 53.4" height="81.3588906009245" data-palette-color="#f4e2de"><g class="wordmark-text-0" data-fill-palette-color="primary" id="text-0"><path d="M6.55-2.95L6.55-34.05 2.6-34.65 2.6-37.15 16.2-37.15 16.2-34.65 11.9-34.05 11.9-20.6 29.5-20.6 29.5-34.05 25.45-34.65 25.45-37.15 38.85-37.15 38.85-34.65 34.9-34.05 34.9-2.95 38.85-2.45 38.85 0 25.4 0 25.4-2.45 29.5-2.95 29.5-17.5 11.9-17.5 11.9-2.95 16.25-2.45 16.25 0 2.5 0 2.5-2.45 6.55-2.95ZM43.65-7.5Q43.65-12.2 48.35-14.43 53.05-16.65 60.25-16.8L60.25-16.8 60.25-18.2Q60.25-20.55 59.75-21.9 59.25-23.25 58.02-23.88 56.8-24.5 54.55-24.5L54.55-24.5Q52-24.5 49.97-23.78 47.95-23.05 45.95-22L45.95-22 44.7-24.6Q45.35-25.15 47.1-26.05 48.85-26.95 51.15-27.65 53.45-28.35 55.75-28.35L55.75-28.35Q59.3-28.35 61.37-27.38 63.45-26.4 64.35-24.25 65.25-22.1 65.25-18.5L65.25-18.5 65.25-2.45 68.2-2.45 68.2-0.25Q67.2 0 65.67 0.25 64.15 0.5 63 0.5L63 0.5Q61.6 0.5 61.1 0.08 60.6-0.35 60.6-1.8L60.6-1.8 60.6-3.45Q59.1-1.95 56.92-0.7 54.75 0.55 52 0.55L52 0.55Q48.4 0.55 46.02-1.53 43.65-3.6 43.65-7.5L43.65-7.5ZM54.15-2.85Q55.45-2.85 57.15-3.65 58.85-4.45 60.25-5.55L60.25-5.55 60.25-14.15Q54.8-14.15 52.02-12.48 49.25-10.8 49.25-8.1L49.25-8.1Q49.25-5.4 50.57-4.13 51.9-2.85 54.15-2.85L54.15-2.85ZM98.75-14.85Q98.75-10.6 97-7.08 95.25-3.55 92-1.5 88.75 0.55 84.4 0.55L84.4 0.55Q83.2 0.55 81.8 0.35 80.4 0.15 79.55-0.15L79.55-0.15 79.7 4.05 79.7 9.1 84.9 9.65 84.9 12.1 70.95 12.1 70.95 9.65 74.55 9.1 74.55-23.9 70.9-24.8 70.9-27.5 78-28.4 78.1-28.4 79.15-27.5 79.15-24.55Q80.65-26.2 82.87-27.35 85.1-28.5 87.85-28.5L87.85-28.5Q90.8-28.5 93.27-27.05 95.75-25.6 97.25-22.55 98.75-19.5 98.75-14.85L98.75-14.85ZM85.8-25Q83.9-25 82.25-24.2 80.6-23.4 79.7-22.45L79.7-22.45 79.7-3.6Q80.05-3 81.47-2.53 82.9-2.05 84.6-2.05L84.6-2.05Q88.45-2.05 90.82-5.1 93.2-8.15 93.2-14.3L93.2-14.3Q93.2-19.7 91.12-22.35 89.05-25 85.8-25L85.8-25ZM130.14-14.85Q130.14-10.6 128.39-7.08 126.64-3.55 123.39-1.5 120.14 0.55 115.79 0.55L115.79 0.55Q114.59 0.55 113.19 0.35 111.79 0.15 110.94-0.15L110.94-0.15 111.09 4.05 111.09 9.1 116.29 9.65 116.29 12.1 102.34 12.1 102.34 9.65 105.94 9.1 105.94-23.9 102.29-24.8 102.29-27.5 109.39-28.4 109.49-28.4 110.54-27.5 110.54-24.55Q112.04-26.2 114.27-27.35 116.49-28.5 119.24-28.5L119.24-28.5Q122.19-28.5 124.67-27.05 127.14-25.6 128.64-22.55 130.14-19.5 130.14-14.85L130.14-14.85ZM117.19-25Q115.29-25 113.64-24.2 111.99-23.4 111.09-22.45L111.09-22.45 111.09-3.6Q111.44-3 112.87-2.53 114.29-2.05 115.99-2.05L115.99-2.05Q119.84-2.05 122.22-5.1 124.59-8.15 124.59-14.3L124.59-14.3Q124.59-19.7 122.52-22.35 120.44-25 117.19-25L117.19-25ZM138.54 12.45Q137.69 12.45 136.87 12.35 136.04 12.25 135.69 12.05L135.69 12.05 135.69 7.7Q135.99 7.9 136.87 8 137.74 8.1 138.54 8.1L138.54 8.1Q140.94 8.1 142.77 6.43 144.59 4.75 146.29 0L146.29 0 143.89 0 134.39-24.75 132.09-25.4 132.09-27.75 144.14-27.75 144.14-25.4 140.29-24.8 145.19-10.05 147.49-2.75 149.64-10.1 154.09-24.8 150.74-25.4 150.74-27.75 160.79-27.75 160.79-25.4 158.29-24.8Q150.94-2.3 149.64 0.75L149.64 0.75Q147.94 5.05 146.54 7.48 145.14 9.9 143.24 11.18 141.34 12.45 138.54 12.45L138.54 12.45ZM167.39-2.95L167.39-34.05 163.44-34.65 163.44-37.15 177.04-37.15 177.04-34.65 172.74-34.05 172.74-20.6 190.34-20.6 190.34-34.05 186.29-34.65 186.29-37.15 199.69-37.15 199.69-34.65 195.74-34.05 195.74-2.95 199.69-2.45 199.69 0 186.24 0 186.24-2.45 190.34-2.95 190.34-17.5 172.74-17.5 172.74-2.95 177.09-2.45 177.09 0 163.34 0 163.34-2.45 167.39-2.95ZM227.24 0.45Q225.84 0.45 225.16-0.1 224.49-0.65 224.49-1.9L224.49-1.9 224.49-3.6Q222.84-1.95 220.36-0.7 217.89 0.55 215.39 0.55L215.39 0.55Q210.74 0.55 208.79-1.95 206.84-4.45 206.84-10.2L206.84-10.2 206.84-24.7 204.04-25.5 204.04-27.7 211.04-28.35 211.09-28.35 212.04-27.75 212.04-10.6Q212.04-7.7 212.46-6.08 212.89-4.45 213.96-3.68 215.04-2.9 217.09-2.9L217.09-2.9Q219.09-2.9 220.84-3.75 222.59-4.6 223.89-5.75L223.89-5.75 223.89-24.7 220.29-25.5 220.29-27.7 227.89-28.35 227.94-28.35 229.09-27.75 229.09-2.55 232.09-2.55 232.04-0.3Q230.64 0.05 229.61 0.25 228.59 0.45 227.24 0.45L227.24 0.45ZM233.73-37.9L233.73-40 241.73-40.95 241.83-40.95 242.98-40.2 242.98-25.15Q244.48-26.6 246.56-27.55 248.63-28.5 251.18-28.5L251.18-28.5Q254.18-28.5 256.66-27.05 259.13-25.6 260.61-22.55 262.08-19.5 262.08-14.85L262.08-14.85Q262.08-10.55 260.31-7.05 258.53-3.55 255.23-1.5 251.93 0.55 247.58 0.55L247.58 0.55Q244.13 0.55 241.28-0.13 238.43-0.8 237.83-1.35L237.83-1.35 237.83-37.35 233.73-37.9ZM249.13-24.95Q247.23-24.95 245.61-24.08 243.98-23.2 242.98-22.1L242.98-22.1 242.98-3.7Q243.28-3 244.71-2.58 246.13-2.15 247.93-2.15L247.93-2.15Q251.78-2.15 254.13-5.25 256.48-8.35 256.48-14.3L256.48-14.3Q256.48-19.65 254.43-22.3 252.38-24.95 249.13-24.95L249.13-24.95Z" fill="#ffffff" data-fill-palette-color="primary"></path></g></svg></g></svg></g><g transform="matrix(1,0,0,1,0,100.56577205842835)"><svg viewBox="0 0 395.52 30.619914206035222" height="30.619914206035222" width="395.52"><g transform="matrix(1,0,0,1,0,0)"><svg width="395.52" viewBox="-0.95 -37.1 634.83 49.151961786097004" height="30.619914206035222" data-palette-color="#f4e2de"><path d="M7.2 0.6L7.5-1.7Q9.3-2.05 10.1-2.6 10.9-3.15 11.15-4.1 11.4-5.05 11.4-7.1L11.4-7.1 11.4-9.3Q11.4-10.85 11.1-12.03 10.8-13.2 9.95-14.95L9.95-14.95 5.45-24.1Q4.15-26.75 3.6-27.68 3.05-28.6 2.05-29.15 1.05-29.7-0.85-29.85L-0.85-29.85-0.95-30.05-0.65-32Q-0.1-31.95 1.45-31.9 3-31.85 4.85-31.85L4.85-31.85Q6.6-31.85 8.93-32.02 11.25-32.2 11.95-32.25L11.95-32.25 12.1-31.9 11.95-30.15Q9.7-29.95 8.93-29.58 8.15-29.2 8.15-28.35L8.15-28.35Q8.15-27.7 9.4-24.8 10.65-21.9 11.98-19.1 13.3-16.3 13.75-15.45L13.75-15.45 14-15.45 19.7-26.05Q20.5-27.5 20.5-28.55L20.5-28.55Q20.5-29.85 17.35-30.05L17.35-30.05 17.25-30.25 17.55-32.2Q18.15-32.15 20.05-32 21.95-31.85 23.1-31.85L23.1-31.85Q24.3-31.85 25.78-31.93 27.25-32 27.7-32.05L27.7-32.05 27.9-31.7 27.6-29.85Q26-29.55 25.1-29.03 24.2-28.5 23.53-27.53 22.85-26.55 21.55-24.25L21.55-24.25Q21.25-23.65 21.05-23.35L21.05-23.35 16.05-14.55Q15.4-13.4 15.23-11.95 15.05-10.5 14.95-6.7L14.95-6.7 14.95-5.6Q14.9-3.65 15.38-2.93 15.85-2.2 17.15-2.2L17.15-2.2Q17.95-2.2 18.65-2.25 19.35-2.3 19.6-2.35L19.6-2.35 19.7-2.15 19.25 0.15Q18.55 0.1 16.68 0.05 14.8 0 12.9 0L12.9 0Q11.35 0 9.55 0.25 7.75 0.5 7.2 0.6L7.2 0.6ZM36.4 0.6Q33.55 0.6 31.35-0.8 29.15-2.2 27.92-4.73 26.7-7.25 26.7-10.5L26.7-10.5Q26.7-14 28.22-16.93 29.75-19.85 32.4-21.53 35.05-23.2 38.3-23.2L38.3-23.2Q41.1-23.2 43.32-21.8 45.55-20.4 46.77-17.88 48-15.35 48-12.1L48-12.1Q48-8.6 46.47-5.68 44.95-2.75 42.3-1.07 39.65 0.6 36.4 0.6L36.4 0.6ZM37.8-1.85Q40.6-1.85 42.25-4.13 43.9-6.4 43.9-10.3L43.9-10.3Q43.9-13.25 43-15.58 42.1-17.9 40.47-19.2 38.85-20.5 36.8-20.5L36.8-20.5Q34-20.5 32.35-18.2 30.7-15.9 30.7-11.95L30.7-11.95Q30.7-9 31.6-6.7 32.5-4.4 34.1-3.13 35.7-1.85 37.8-1.85L37.8-1.85ZM54.3-17.35Q54.3-20.05 52.45-20.05L52.45-20.05Q52.09-20.05 51.7-19.98 51.3-19.9 51.2-19.85L51.2-19.85 51.4-21.7Q53.34-22 55.59-22.53 57.84-23.05 58.55-23.2L58.55-23.2 58.84-22.6Q58.34-21.3 57.95-16.7 57.55-12.1 57.55-7.75L57.55-7.75Q57.55-2.85 61.55-2.85L61.55-2.85Q63.05-2.85 64.34-3.58 65.65-4.3 67.59-5.7L67.59-5.7 67.59-17.3Q67.59-18.8 67.05-19.4 66.5-20 65.09-20L65.09-20 63.9-19.95 64.09-21.75Q66.3-22.05 68.7-22.55 71.09-23.05 71.8-23.2L71.8-23.2 72.09-22.6Q71.65-21.45 71.32-16.35 71-11.25 71-5.25L71-5.25Q71-4.15 71.55-3.55 72.09-2.95 73.05-2.95L73.05-2.95Q73.75-2.95 74.42-3.23 75.09-3.5 75.52-3.8 75.95-4.1 76.05-4.2L76.05-4.2 76.75-3.4Q76.55-3.1 75.82-2.15 75.09-1.2 74.12-0.3 73.15 0.6 72.4 0.6L72.4 0.6Q68.34 0.6 67.95-3.45L67.95-3.45 67.7-3.55Q65.3-1.7 63.37-0.55 61.45 0.6 60.75 0.6L60.75 0.6Q57.55 0.6 55.82-0.9 54.09-2.4 54.09-5.2L54.09-5.2 54.3-17.35ZM79.79-1.8Q81.29-1.95 81.79-2.78 82.29-3.6 82.29-5.95L82.29-5.95 82.29-16.95Q82.29-18.6 81.84-19.3 81.39-20 80.39-20L80.39-20Q79.99-20 79.72-19.95 79.44-19.9 79.34-19.85L79.34-19.85 79.09-20.2 79.24-21.75Q81.14-22.1 83.27-22.6 85.39-23.1 85.99-23.25L85.99-23.25 86.34-22.95Q86.24-22.5 86.04-20.88 85.84-19.25 85.89-17.8L85.89-17.8 86.09-17.65Q87.59-20 89.62-21.5 91.64-23 93.14-23L93.14-23Q93.84-23 94.22-22.93 94.59-22.85 94.69-22.8L94.69-22.8 94.84-22.6Q94.74-21.9 94.42-19.63 94.09-17.35 94.04-15.45L94.04-15.45 92.09-15.3Q92.09-17.35 91.82-18.03 91.54-18.7 90.74-18.7L90.74-18.7Q89.64-18.7 88.39-17.78 87.14-16.85 86.09-15.3L86.09-15.3Q86.04-13.85 85.89-10.5 85.74-7.15 85.69-5.1L85.69-5.1Q85.69-3.4 86.19-2.8 86.69-2.2 88.09-2.2L88.09-2.2Q88.74-2.2 89.39-2.25 90.04-2.3 90.29-2.3L90.29-2.3 90.34-2.1 89.89 0.1Q89.39 0.1 87.89 0.05 86.39 0 84.79 0L84.79 0Q82.94 0 81.44 0.08 79.94 0.15 79.54 0.2L79.54 0.2 79.79-1.8ZM116.84 0.6Q114.74 0.6 112.99 0.23 111.24-0.15 110.11-0.6 108.99-1.05 108.99-1.1L108.99-1.1 108.74-1.6Q108.79-1.9 108.94-3.1 109.09-4.3 109.21-6.23 109.34-8.15 109.34-10.3L109.34-10.3 111.59-10.55Q111.59-6.8 112.09-5 112.59-3.2 113.94-2.53 115.29-1.85 118.09-1.85L118.09-1.85Q121.24-1.85 123.14-3.33 125.04-4.8 125.04-7.35L125.04-7.35Q125.04-8.85 124.01-10.05 122.99-11.25 121.59-12.1 120.19-12.95 117.44-14.4L117.44-14.4Q114.84-15.75 113.19-16.88 111.54-18 110.41-19.55 109.29-21.1 109.29-23.15L109.29-23.15Q109.29-25.75 110.81-27.88 112.34-30 114.96-31.23 117.59-32.45 120.79-32.45L120.79-32.45Q122.79-32.45 124.49-32.18 126.19-31.9 127.19-31.6 128.19-31.3 128.44-31.2L128.44-31.2 128.59-30.9Q128.54-30.6 128.34-29.5 128.14-28.4 127.89-26.45 127.64-24.5 127.49-22.45L127.49-22.45 125.54-22.25 125.24-22.5Q125.29-22.7 125.34-23.43 125.39-24.15 125.39-25.1L125.39-25.1Q125.39-27.75 124.09-28.75 122.79-29.75 119.44-29.75L119.44-29.75Q116.69-29.75 114.91-28.38 113.14-27 113.14-24.95L113.14-24.95Q113.14-22.95 114.86-21.48 116.59-20 119.94-18.25L119.94-18.25Q123.19-16.6 124.89-15.53 126.59-14.45 127.89-12.85 129.19-11.25 129.19-9.15L129.19-9.15Q129.19-6.35 127.61-4.13 126.04-1.9 123.24-0.65 120.44 0.6 116.84 0.6L116.84 0.6ZM134.64 11.85L134.89 9.9Q135.99 9.75 136.51 9.45 137.04 9.15 137.24 8.45 137.44 7.75 137.44 6.3L137.44 6.3Q137.44 4.2 137.49 2.7L137.49 2.7 137.54-2 137.54-16.9Q137.54-18.6 136.99-19.28 136.44-19.95 135.09-19.95L135.09-19.95 134.54-19.95 134.39-20.15 134.54-21.8Q136.69-22.15 138.81-22.63 140.94-23.1 141.54-23.25L141.54-23.25 141.84-22.85Q141.79-22.6 141.61-21.78 141.44-20.95 141.34-20.15L141.34-20.15 141.54-19.8Q146.24-23.05 147.34-23.05L147.34-23.05Q150.19-23.05 152.39-21.73 154.59-20.4 155.79-18 156.99-15.6 156.99-12.5L156.99-12.5Q156.99-8.95 155.29-5.95 153.59-2.95 150.74-1.18 147.89 0.6 144.54 0.6L144.54 0.6Q143.44 0.6 142.36 0.53 141.29 0.45 140.89 0.4L140.89 0.4 140.94 5.55Q140.94 7.85 141.41 8.68 141.89 9.5 143.29 9.5L143.29 9.5 144.99 9.45 145.09 9.6 144.69 11.5 139.94 11.5Q138.14 11.5 136.61 11.65 135.09 11.8 134.64 11.85L134.64 11.85ZM145.94-2.15Q149.29-2.15 151.21-4.42 153.14-6.7 153.14-10.65L153.14-10.65Q153.14-13.15 152.26-15.2 151.39-17.25 149.86-18.45 148.34-19.65 146.54-19.65L146.54-19.65Q145.54-19.65 144.09-18.98 142.64-18.3 141.34-17.2L141.34-17.2Q140.94-10.65 140.94-3.1L140.94-3.1Q141.94-2.7 143.31-2.43 144.69-2.15 145.94-2.15L145.94-2.15ZM171.08 0.6Q167.98 0.6 165.58-0.78 163.18-2.15 161.88-4.67 160.58-7.2 160.58-10.45L160.58-10.45Q160.58-13.8 162.11-16.75 163.63-19.7 166.18-21.45 168.73-23.2 171.63-23.2L171.63-23.2Q175.28-23.2 177.18-21.35 179.08-19.5 179.08-15.95L179.08-15.95Q179.08-14.5 178.78-13.5L178.78-13.5 178.13-12.9 164.33-12.9Q164.28-8.05 166.26-5.43 168.23-2.8 171.78-2.8L171.78-2.8Q174.58-2.8 177.88-4.35L177.88-4.35 178.18-4.25 178.73-2.8Q176.93-1.5 174.76-0.45 172.58 0.6 171.08 0.6L171.08 0.6ZM164.53-14.75L173.58-15.2Q174.33-15.3 174.58-15.55 174.83-15.8 174.83-16.55L174.83-16.55Q174.83-18.55 173.76-19.6 172.68-20.65 170.68-20.65L170.68-20.65Q168.33-20.65 166.66-19.05 164.98-17.45 164.53-14.75L164.53-14.75ZM193.43 0.6Q188.68 0.6 185.83-2.4 182.98-5.4 182.98-10.45L182.98-10.45Q182.98-14 184.51-16.93 186.03-19.85 188.66-21.53 191.28-23.2 194.53-23.2L194.53-23.2Q195.93-23.2 197.23-23 198.53-22.8 199.36-22.58 200.18-22.35 200.38-22.25L200.38-22.25 200.53-21.9Q200.48-21.65 200.26-20.73 200.03-19.8 199.78-18.28 199.53-16.75 199.48-15L199.48-15 197.43-14.85 197.43-16.4Q197.43-18.25 196.31-19.38 195.18-20.5 193.33-20.5L193.33-20.5Q190.28-20.5 188.63-18.32 186.98-16.15 186.98-12.15L186.98-12.15Q186.98-7.8 188.81-5.28 190.63-2.75 193.78-2.75L193.78-2.75Q195.03-2.75 196.28-3.13 197.53-3.5 198.38-3.88 199.23-4.25 199.43-4.4L199.43-4.4 199.73-4.3 200.28-2.75Q199.93-2.5 198.76-1.7 197.58-0.9 196.06-0.15 194.53 0.6 193.43 0.6L193.43 0.6ZM204.58 0.6L204.78-1.45Q206.28-1.85 206.93-2.63 207.58-3.4 207.58-4.7L207.58-4.7 207.58-17.4Q207.58-20.1 205.73-20.1L205.73-20.1Q205.38-20.1 204.98-20.03 204.58-19.95 204.48-19.9L204.48-19.9 204.68-21.75Q206.78-22.05 209-22.55 211.23-23.05 211.88-23.2L211.88-23.2 212.13-22.6Q211.68-21.55 211.33-16.18 210.98-10.8 210.98-4.9L210.98-4.9Q210.98-3.45 211.38-2.78 211.78-2.1 212.73-2.1L212.73-2.1Q213.28-2.1 213.78-2.15 214.28-2.2 214.48-2.2L214.48-2.2 214.58-2 214.18 0.15Q213.73 0.1 212.48 0.05 211.23 0 209.73 0L209.73 0Q208.43 0 206.75 0.25 205.08 0.5 204.58 0.6L204.58 0.6ZM208.98-29.1Q207.83-29.1 207.18-29.85 206.53-30.6 206.53-31.65L206.53-31.65Q206.53-32.85 207.38-33.73 208.23-34.6 209.48-34.6L209.48-34.6Q210.63-34.6 211.28-33.85 211.93-33.1 211.93-32.05L211.93-32.05Q211.93-30.85 211.08-29.98 210.23-29.1 208.98-29.1L208.98-29.1ZM235.08 0.6Q231.03 0.6 230.63-3.45L230.63-3.45 230.43-3.5Q228.63-1.7 227.15-0.65 225.68 0.4 224.93 0.4L224.93 0.4Q222.13 0.4 220.33-1.35 218.53-3.1 218.53-5.8L218.53-5.8Q218.53-7.25 219.25-8.35 219.98-9.45 221.18-9.8L221.18-9.8 230.68-12.4 230.73-14.6Q230.73-17.1 229.58-18.5 228.43-19.9 226.33-19.9L226.33-19.9Q224.93-19.9 223.38-19.25 221.83-18.6 220.33-17.4L220.33-17.4 220.08-17.55 219.48-19.7Q221.83-21.05 224.2-22.13 226.58-23.2 227.63-23.2L227.63-23.2Q230.88-23.2 232.73-21.5 234.58-19.8 234.58-16.75L234.58-16.75Q234.58-15.65 234.23-12.25L234.23-12.25Q233.68-6.75 233.68-5.25L233.68-5.25Q233.68-4.15 234.23-3.55 234.78-2.95 235.73-2.95L235.73-2.95Q236.53-2.95 237.38-3.33 238.23-3.7 238.73-4.2L238.73-4.2 239.43-3.4Q238.68-2.15 237.5-0.98 236.33 0.2 235.08 0.6L235.08 0.6ZM225.78-3Q226.73-3 228-3.68 229.28-4.35 230.33-5.4L230.33-5.4 230.58-10.5 223.78-8.45Q222.33-8 222.33-6.35L222.33-6.35Q222.33-4.9 223.3-3.95 224.28-3 225.78-3L225.78-3ZM241.12 0.6L241.32-1.45Q242.72-1.85 243.3-2.45 243.87-3.05 244-3.9 244.12-4.75 244.12-6.75L244.12-6.75 244.12-31.3Q244.12-32.85 243.77-33.4 243.42-33.95 242.32-33.95L242.32-33.95Q242.07-33.95 241.17-33.85L241.17-33.85 241.02-33.95 241.22-35.65Q245.42-36.25 248.62-37.1L248.62-37.1 248.92-36.45Q248.37-35.6 247.95-25.75 247.52-15.9 247.52-4.9L247.52-4.9Q247.52-3.4 247.92-2.75 248.32-2.1 249.27-2.1L249.27-2.1 251.02-2.2 251.12-2 250.72 0.15Q247.42 0 246.27 0L246.27 0Q244.57 0 241.12 0.6L241.12 0.6ZM277.72 0.6Q276.97 0.5 274.54 0.25 272.12 0 270.52 0L270.52 0Q268.97 0 267.14 0.25 265.32 0.5 264.77 0.6L264.77 0.6 265.07-1.7Q267.37-2.15 268.17-3.03 268.97-3.9 268.97-6L268.97-6 269.02-27Q269.02-28.6 268.64-29.15 268.27-29.7 267.17-29.7L267.17-29.7Q266.67-29.7 266.17-29.65 265.67-29.6 265.47-29.6L265.47-29.6 265.37-29.8 265.72-32Q266.27-31.95 267.82-31.9 269.37-31.85 270.97-31.85L270.97-31.85Q273.12-31.85 275.42-31.93 277.72-32 278.57-32.05L278.57-32.05Q283.37-32.05 287.12-30.18 290.87-28.3 292.94-24.9 295.02-21.5 295.02-17.1L295.02-17.1Q295.02-12.2 292.72-8.15 290.42-4.1 286.47-1.75 282.52 0.6 277.72 0.6L277.72 0.6ZM275.12-29.6Q274.07-29.6 273.72-29.38 273.37-29.15 273.32-28.5L273.32-28.5Q272.57-9.25 272.57-6.55L272.57-6.55Q272.57-4.65 273.09-3.7 273.62-2.75 274.94-2.35 276.27-1.95 278.87-1.95L278.87-1.95Q284.27-1.95 287.37-5.68 290.47-9.4 290.47-15.9L290.47-15.9Q290.47-22.5 286.49-26.05 282.52-29.6 275.12-29.6L275.12-29.6ZM315.62 0.6Q311.57 0.6 311.17-3.45L311.17-3.45 310.97-3.5Q309.17-1.7 307.69-0.65 306.22 0.4 305.47 0.4L305.47 0.4Q302.67 0.4 300.87-1.35 299.07-3.1 299.07-5.8L299.07-5.8Q299.07-7.25 299.79-8.35 300.52-9.45 301.72-9.8L301.72-9.8 311.22-12.4 311.27-14.6Q311.27-17.1 310.12-18.5 308.97-19.9 306.87-19.9L306.87-19.9Q305.47-19.9 303.92-19.25 302.37-18.6 300.87-17.4L300.87-17.4 300.62-17.55 300.02-19.7Q302.37-21.05 304.74-22.13 307.12-23.2 308.17-23.2L308.17-23.2Q311.42-23.2 313.27-21.5 315.12-19.8 315.12-16.75L315.12-16.75Q315.12-15.65 314.77-12.25L314.77-12.25Q314.22-6.75 314.22-5.25L314.22-5.25Q314.22-4.15 314.77-3.55 315.32-2.95 316.27-2.95L316.27-2.95Q317.07-2.95 317.92-3.33 318.77-3.7 319.27-4.2L319.27-4.2 319.97-3.4Q319.22-2.15 318.04-0.98 316.87 0.2 315.62 0.6L315.62 0.6ZM306.32-3Q307.27-3 308.54-3.68 309.82-4.35 310.87-5.4L310.87-5.4 311.12-10.5 304.32-8.45Q302.87-8 302.87-6.35L302.87-6.35Q302.87-4.9 303.84-3.95 304.82-3 306.32-3L306.32-3ZM321.16 12.05Q320.76 12.05 319.86 10.88 318.96 9.7 318.96 9.2L318.96 9.2 319.21 8.85Q322.01 8.85 324.44 6.53 326.86 4.2 328.61 0L328.61 0Q324.76-12.2 322.41-18.4L322.41-18.4Q321.96-19.65 321.14-20.2 320.31-20.75 319.01-20.8L319.01-20.8 318.91-21 319.21-22.65 323.36-22.6Q325.21-22.6 327.04-22.75 328.86-22.9 329.36-22.95L329.36-22.95 329.46-22.7 329.16-21.15Q327.46-21.1 326.89-20.83 326.31-20.55 326.31-19.85L326.31-19.85Q326.31-19.05 327.29-15.7 328.26-12.35 329.31-9.03 330.36-5.7 330.71-4.7L330.71-4.7 330.91-4.7Q336.66-18.45 336.66-19.65L336.66-19.65Q336.66-20.95 334.76-20.95L334.76-20.95 332.46-20.95 332.36-21.15 332.66-22.8Q333.11-22.75 334.66-22.68 336.21-22.6 337.76-22.6L337.76-22.6 342.01-22.65 341.66-20.8Q340.56-20.6 339.99-20.03 339.41-19.45 338.86-17.95L338.86-17.95 332.51-2.75Q329.91 3.55 328.26 6.6 326.61 9.65 325.01 10.88 323.41 12.1 321.16 12.05L321.16 12.05ZM342.21 7.85L341.31 7.1 341.31 6.6Q343.06 5.4 344.16 3.75 345.26 2.1 345.26 0.55L345.26 0.55Q345.26-0.45 344.81-1.38 344.36-2.3 343.66-2.95L343.66-2.95 343.76-3.65Q345.46-4.95 346.66-4.95L346.66-4.95Q347.76-4.95 348.49-3.93 349.21-2.9 349.21-1.05L349.21-1.05Q349.21 1.55 347.11 3.88 345.01 6.2 342.21 7.85L342.21 7.85ZM377.61 0.6Q373.56 0.6 370.41-1.35 367.26-3.3 365.51-6.83 363.76-10.35 363.76-14.85L363.76-14.85Q363.76-19.75 365.93-23.78 368.11-27.8 371.88-30.13 375.66-32.45 380.21-32.45L380.21-32.45Q384.36-32.45 387.56-30.5 390.76-28.55 392.56-25.05 394.36-21.55 394.36-17.05L394.36-17.05Q394.36-12.15 392.13-8.1 389.91-4.05 386.08-1.73 382.26 0.6 377.61 0.6L377.61 0.6ZM379.16-1.95Q382.31-1.95 384.76-3.6 387.21-5.25 388.56-8.2 389.91-11.15 389.91-14.95L389.91-14.95Q389.91-19.2 388.46-22.48 387.01-25.75 384.43-27.6 381.86-29.45 378.51-29.45L378.51-29.45Q375.46-29.45 373.08-27.8 370.71-26.15 369.38-23.2 368.06-20.25 368.06-16.45L368.06-16.45Q368.06-12.2 369.46-8.93 370.86-5.65 373.38-3.8 375.91-1.95 379.16-1.95L379.16-1.95ZM412.7-1.45Q414.2-1.85 414.85-2.63 415.5-3.4 415.5-4.7L415.5-4.7 415.7-14.6Q415.7-17.1 414.63-18.45 413.55-19.8 411.55-19.8L411.55-19.8Q409.95-19.8 408.3-18.98 406.65-18.15 405.4-17.2L405.4-17.2Q404.95-6.85 404.95-4.9L404.95-4.9Q404.95-3.35 405.35-2.73 405.75-2.1 406.75-2.1L406.75-2.1Q407.3-2.1 407.8-2.15 408.3-2.2 408.5-2.2L408.5-2.2 408.6-2 408.15 0.15Q407.7 0.1 406.4 0.05 405.1 0 403.6 0L403.6 0Q402.3 0 400.73 0.13 399.15 0.25 398.65 0.3L398.65 0.3 398.9-1.75Q400.35-2 400.95-2.65 401.55-3.3 401.55-4.7L401.55-4.7 401.55-16.9Q401.55-18.6 401-19.28 400.45-19.95 399.1-19.95L399.1-19.95 398.55-19.95 398.4-20.15 398.55-21.8Q400.7-22.15 402.83-22.63 404.95-23.1 405.55-23.25L405.55-23.25 405.85-22.85Q405.75-22.55 405.55-21.58 405.35-20.6 405.3-19.55L405.3-19.55 405.4-19.4Q411.1-23.2 412.75-23.2L412.75-23.2Q415.9-23.2 417.75-21.45 419.6-19.7 419.6-16.75L419.6-16.75Q419.6-16.25 419.3-12.15L419.3-12.15Q418.9-6.95 418.9-4.9L418.9-4.9Q418.9-3.45 419.3-2.78 419.7-2.1 420.65-2.1L420.65-2.1Q421.2-2.1 421.7-2.15 422.2-2.2 422.4-2.2L422.4-2.2 422.5-2 422.1 0.15Q421.65 0.1 420.4 0.05 419.15 0 417.65 0L417.65 0Q416.35 0 414.68 0.25 413 0.5 412.5 0.6L412.5 0.6 412.7-1.45ZM440.85 0.6L441.15-1.7Q442.95-2.05 443.75-2.6 444.55-3.15 444.8-4.1 445.05-5.05 445.05-7.1L445.05-7.1 445.05-9.3Q445.05-10.85 444.75-12.03 444.45-13.2 443.6-14.95L443.6-14.95 439.1-24.1Q437.8-26.75 437.25-27.68 436.7-28.6 435.7-29.15 434.7-29.7 432.8-29.85L432.8-29.85 432.7-30.05 433-32Q433.55-31.95 435.1-31.9 436.65-31.85 438.5-31.85L438.5-31.85Q440.25-31.85 442.57-32.02 444.9-32.2 445.6-32.25L445.6-32.25 445.75-31.9 445.6-30.15Q443.35-29.95 442.57-29.58 441.8-29.2 441.8-28.35L441.8-28.35Q441.8-27.7 443.05-24.8 444.3-21.9 445.62-19.1 446.95-16.3 447.4-15.45L447.4-15.45 447.65-15.45 453.35-26.05Q454.15-27.5 454.15-28.55L454.15-28.55Q454.15-29.85 451-30.05L451-30.05 450.9-30.25 451.2-32.2Q451.8-32.15 453.7-32 455.6-31.85 456.75-31.85L456.75-31.85Q457.95-31.85 459.42-31.93 460.9-32 461.35-32.05L461.35-32.05 461.55-31.7 461.25-29.85Q459.65-29.55 458.75-29.03 457.85-28.5 457.17-27.53 456.5-26.55 455.2-24.25L455.2-24.25Q454.9-23.65 454.7-23.35L454.7-23.35 449.7-14.55Q449.05-13.4 448.87-11.95 448.7-10.5 448.6-6.7L448.6-6.7 448.6-5.6Q448.55-3.65 449.02-2.93 449.5-2.2 450.8-2.2L450.8-2.2Q451.6-2.2 452.3-2.25 453-2.3 453.25-2.35L453.25-2.35 453.35-2.15 452.9 0.15Q452.2 0.1 450.32 0.05 448.45 0 446.55 0L446.55 0Q445 0 443.2 0.25 441.4 0.5 440.85 0.6L440.85 0.6ZM470.05 0.6Q467.19 0.6 465-0.8 462.8-2.2 461.57-4.73 460.35-7.25 460.35-10.5L460.35-10.5Q460.35-14 461.87-16.93 463.4-19.85 466.05-21.53 468.69-23.2 471.94-23.2L471.94-23.2Q474.75-23.2 476.97-21.8 479.19-20.4 480.42-17.88 481.65-15.35 481.65-12.1L481.65-12.1Q481.65-8.6 480.12-5.68 478.6-2.75 475.94-1.07 473.3 0.6 470.05 0.6L470.05 0.6ZM471.44-1.85Q474.25-1.85 475.9-4.13 477.55-6.4 477.55-10.3L477.55-10.3Q477.55-13.25 476.65-15.58 475.75-17.9 474.12-19.2 472.5-20.5 470.44-20.5L470.44-20.5Q467.65-20.5 466-18.2 464.35-15.9 464.35-11.95L464.35-11.95Q464.35-9 465.25-6.7 466.15-4.4 467.75-3.13 469.35-1.85 471.44-1.85L471.44-1.85ZM487.94-17.35Q487.94-20.05 486.09-20.05L486.09-20.05Q485.74-20.05 485.34-19.98 484.94-19.9 484.84-19.85L484.84-19.85 485.04-21.7Q486.99-22 489.24-22.53 491.49-23.05 492.19-23.2L492.19-23.2 492.49-22.6Q491.99-21.3 491.59-16.7 491.19-12.1 491.19-7.75L491.19-7.75Q491.19-2.85 495.19-2.85L495.19-2.85Q496.69-2.85 497.99-3.58 499.29-4.3 501.24-5.7L501.24-5.7 501.24-17.3Q501.24-18.8 500.69-19.4 500.14-20 498.74-20L498.74-20 497.54-19.95 497.74-21.75Q499.94-22.05 502.34-22.55 504.74-23.05 505.44-23.2L505.44-23.2 505.74-22.6Q505.29-21.45 504.97-16.35 504.64-11.25 504.64-5.25L504.64-5.25Q504.64-4.15 505.19-3.55 505.74-2.95 506.69-2.95L506.69-2.95Q507.39-2.95 508.07-3.23 508.74-3.5 509.17-3.8 509.59-4.1 509.69-4.2L509.69-4.2 510.39-3.4Q510.19-3.1 509.47-2.15 508.74-1.2 507.77-0.3 506.79 0.6 506.04 0.6L506.04 0.6Q501.99 0.6 501.59-3.45L501.59-3.45 501.34-3.55Q498.94-1.7 497.02-0.55 495.09 0.6 494.39 0.6L494.39 0.6Q491.19 0.6 489.47-0.9 487.74-2.4 487.74-5.2L487.74-5.2 487.94-17.35ZM513.44-1.8Q514.94-1.95 515.44-2.78 515.94-3.6 515.94-5.95L515.94-5.95 515.94-16.95Q515.94-18.6 515.49-19.3 515.04-20 514.04-20L514.04-20Q513.64-20 513.37-19.95 513.09-19.9 512.99-19.85L512.99-19.85 512.74-20.2 512.89-21.75Q514.79-22.1 516.91-22.6 519.04-23.1 519.64-23.25L519.64-23.25 519.99-22.95Q519.89-22.5 519.69-20.88 519.49-19.25 519.54-17.8L519.54-17.8 519.74-17.65Q521.24-20 523.26-21.5 525.29-23 526.79-23L526.79-23Q527.49-23 527.87-22.93 528.24-22.85 528.34-22.8L528.34-22.8 528.49-22.6Q528.39-21.9 528.07-19.63 527.74-17.35 527.69-15.45L527.69-15.45 525.74-15.3Q525.74-17.35 525.47-18.03 525.19-18.7 524.39-18.7L524.39-18.7Q523.29-18.7 522.04-17.78 520.79-16.85 519.74-15.3L519.74-15.3Q519.69-13.85 519.54-10.5 519.39-7.15 519.34-5.1L519.34-5.1Q519.34-3.4 519.84-2.8 520.34-2.2 521.74-2.2L521.74-2.2Q522.39-2.2 523.04-2.25 523.69-2.3 523.94-2.3L523.94-2.3 523.99-2.1 523.54 0.1Q523.04 0.1 521.54 0.05 520.04 0 518.44 0L518.44 0Q516.59 0 515.09 0.08 513.59 0.15 513.19 0.2L513.19 0.2 513.44-1.8ZM552.08 0.85Q551.38-1.65 548.86-10.15 546.33-18.65 543.73-26.8L543.73-26.8Q543.28-28.25 542.18-28.93 541.08-29.6 539.23-29.65L539.23-29.65 539.18-29.85 539.48-32Q540.13-32 541.83-31.93 543.53-31.85 545.13-31.85L545.13-31.85Q547.33-31.85 549.53-32.08 551.73-32.3 552.38-32.4L552.38-32.4 552.53-32.05 552.33-30.1Q549.78-29.9 548.91-29.5 548.03-29.1 548.03-28.05L548.03-28.05Q548.03-27.2 549.41-22.03 550.78-16.85 552.26-11.65 553.73-6.45 554.18-4.85L554.18-4.85 554.48-4.85 561.53-24.05 560.63-26.8Q560.13-28.25 559.08-28.9 558.03-29.55 556.13-29.65L556.13-29.65 556.03-29.85 556.38-32Q557.03-32 558.73-31.93 560.43-31.85 562.03-31.85L562.03-31.85Q563.93-31.85 566.26-32.08 568.58-32.3 569.28-32.4L569.28-32.4 569.43-32.05 569.23-30.1Q566.63-29.9 565.76-29.5 564.88-29.1 564.88-28L564.88-28Q564.88-26.95 567.48-17.6 570.08-8.25 571.08-4.85L571.08-4.85 571.38-4.85Q571.48-5.15 571.61-5.48 571.73-5.8 571.88-6.25L571.88-6.25Q579.48-26.65 579.48-28.1L579.48-28.1Q579.48-29.05 578.68-29.45 577.88-29.85 576.08-29.85L576.08-29.85 573.58-29.85 573.48-30.05 573.83-32.2Q574.48-32.15 576.63-32 578.78-31.85 580.78-31.85L580.78-31.85Q582.58-31.85 584.08-31.9 585.58-31.95 586.08-32L586.08-32 585.73-29.65Q584.23-29.55 583.63-29.13 583.03-28.7 582.53-27.25L582.53-27.25 572.03-0.25 568.93 0.85Q568.43-0.9 566.61-7.2 564.78-13.5 562.68-20.35L562.68-20.35 562.38-20.35 555.28-0.25 552.08 0.85ZM600.73 0.6Q596.68 0.6 596.28-3.45L596.28-3.45 596.08-3.5Q594.28-1.7 592.81-0.65 591.33 0.4 590.58 0.4L590.58 0.4Q587.78 0.4 585.98-1.35 584.18-3.1 584.18-5.8L584.18-5.8Q584.18-7.25 584.91-8.35 585.63-9.45 586.83-9.8L586.83-9.8 596.33-12.4 596.38-14.6Q596.38-17.1 595.23-18.5 594.08-19.9 591.98-19.9L591.98-19.9Q590.58-19.9 589.03-19.25 587.48-18.6 585.98-17.4L585.98-17.4 585.73-17.55 585.13-19.7Q587.48-21.05 589.86-22.13 592.23-23.2 593.28-23.2L593.28-23.2Q596.53-23.2 598.38-21.5 600.23-19.8 600.23-16.75L600.23-16.75Q600.23-15.65 599.88-12.25L599.88-12.25Q599.33-6.75 599.33-5.25L599.33-5.25Q599.33-4.15 599.88-3.55 600.43-2.95 601.38-2.95L601.38-2.95Q602.18-2.95 603.03-3.33 603.88-3.7 604.38-4.2L604.38-4.2 605.08-3.4Q604.33-2.15 603.16-0.98 601.98 0.2 600.73 0.6L600.73 0.6ZM591.43-3Q592.38-3 593.66-3.68 594.93-4.35 595.98-5.4L595.98-5.4 596.23-10.5 589.43-8.45Q587.98-8 587.98-6.35L587.98-6.35Q587.98-4.9 588.96-3.95 589.93-3 591.43-3L591.43-3ZM606.28 12.05Q605.88 12.05 604.98 10.88 604.08 9.7 604.08 9.2L604.08 9.2 604.33 8.85Q607.13 8.85 609.55 6.53 611.98 4.2 613.73 0L613.73 0Q609.88-12.2 607.53-18.4L607.53-18.4Q607.08-19.65 606.25-20.2 605.43-20.75 604.13-20.8L604.13-20.8 604.03-21 604.33-22.65 608.48-22.6Q610.33-22.6 612.15-22.75 613.98-22.9 614.48-22.95L614.48-22.95 614.58-22.7 614.28-21.15Q612.58-21.1 612-20.83 611.43-20.55 611.43-19.85L611.43-19.85Q611.43-19.05 612.4-15.7 613.38-12.35 614.43-9.03 615.48-5.7 615.83-4.7L615.83-4.7 616.03-4.7Q621.78-18.45 621.78-19.65L621.78-19.65Q621.78-20.95 619.88-20.95L619.88-20.95 617.58-20.95 617.48-21.15 617.78-22.8Q618.23-22.75 619.78-22.68 621.33-22.6 622.88-22.6L622.88-22.6 627.13-22.65 626.78-20.8Q625.68-20.6 625.1-20.03 624.53-19.45 623.98-17.95L623.98-17.95 617.63-2.75Q615.03 3.55 613.38 6.6 611.73 9.65 610.13 10.88 608.53 12.1 606.28 12.05L606.28 12.05ZM630.73 0.6Q629.38 0.6 628.65-0.23 627.93-1.05 627.93-2.25L627.93-2.25Q627.93-3.55 628.78-4.45 629.63-5.35 631.03-5.35L631.03-5.35Q632.38-5.35 633.13-4.53 633.88-3.7 633.88-2.5L633.88-2.5Q633.88-1.2 633-0.3 632.13 0.6 630.73 0.6L630.73 0.6Z" opacity="1" transform="matrix(1,0,0,1,0,0)" fill="#ffffff" class="slogan-text-1" data-fill-palette-color="secondary" id="text-1"></path></svg></g></svg></g></svg></g></svg></g><g transform="matrix(1,0,0,1,102.7489799460355,0)"><svg viewBox="0 0 190.02204010792897 181.29861841748868" height="181.29861841748868" width="190.02204010792897"><g><svg xmlns="http://www.w3.org/2000/svg" xmlns:xlink="http://www.w3.org/1999/xlink" version="1.1" x="0" y="0" viewBox="0.3907139284652476 2.671 99.21259427976558 94.658" enable-background="new 0 0 100 100" xml:space="preserve" height="181.29861841748868" width="190.02204010792897" class="icon-icon-0" data-fill-palette-color="accent" id="icon-0"><path d="M99.453 38.603c-0.414-1.27-1.597-2.129-2.93-2.129H66.029c-1.252-0.332-3.057-1.212-3.947-3.496L52.927 4.8c-0.412-1.27-1.595-2.129-2.929-2.129-1.334 0-2.517 0.859-2.93 2.129l-9.319 28.679c-1.221 2.3-3.446 2.861-4.454 2.995H3.471c-1.334 0-2.517 0.859-2.929 2.129-0.413 1.27 0.039 2.659 1.119 3.443L26.125 59.82c0.842 0.954 2.123 2.972 1.184 5.753-0.068 0.205-0.115 0.363-0.149 0.498l-8.846 27.227c-0.413 1.269 0.04 2.659 1.12 3.443 0.54 0.393 1.175 0.588 1.81 0.588 0.636 0 1.271-0.196 1.811-0.588l23.764-17.267c1.242-0.731 3.69-1.614 6.638 0.202l23.484 17.064c1.081 0.784 2.543 0.783 3.622 0 1.08-0.784 1.531-2.175 1.119-3.443l-9.234-28.421c-0.148-0.943-0.302-3.488 1.856-5.371l24.03-17.46C99.413 41.262 99.864 39.872 99.453 38.603zM60.98 42.635H77.8c0.555 0.111 1.109 0.409 1.24 1.142 0.185 1.029-0.889 1.739-1.575 2.081l-23.466 7.72c-0.557 0.183-0.94 0.692-0.962 1.276-0.021 0.585 0.322 1.122 0.864 1.347l8.376 3.469c0.787 0.398 2.555 1.481 3.038 3.34 0.067 0.257 0.145 0.437 0.226 0.551l4.46 13.726c0.079 0.646-0.012 1.459-0.849 1.793-0.778 0.311-1.521-0.214-2.027-0.746L52.272 58.044c-0.347-0.472-0.952-0.677-1.512-0.521-0.563 0.161-0.968 0.654-1.013 1.238l-0.745 9.474c-0.146 0.745-0.546 2.154-1.556 3.168L32.81 82.038c-0.583 0.32-1.423 0.568-2.053-0.132-0.475-0.525-0.38-1.232-0.146-1.835l15.393-24.103c0.195-0.253 0.306-0.568 0.294-0.902-0.019-0.546-0.354-1.022-0.85-1.233-0.011-0.005-0.022-0.01-0.032-0.015-0.022-0.009-0.043-0.02-0.066-0.028l-24.094-8.213c-0.596-0.327-1.383-0.965-1.056-1.943 0.203-0.607 0.763-0.882 1.342-0.999h16.035c0.938 0.073 2.497 0.371 3.58 1.465l6.318 7.347c0.271 0.315 0.662 0.487 1.062 0.487 0.164 0 0.328-0.028 0.487-0.087 0.549-0.204 0.913-0.728 0.913-1.313V25.765c0.049-0.673 0.297-1.775 1.395-1.86 0.979-0.077 1.565 0.922 1.859 1.638l4.861 14.964C58.464 41.775 59.646 42.635 60.98 42.635z" fill="#ffffff" data-fill-palette-color="accent"></path></svg></g></svg></g><g></g></svg></g><defs></defs></svg><rect width="294.7697981908164" height="247.2" fill="none" stroke="none" visibility="hidden"></rect></g></svg></g></svg>